<svg xmlns="http://www.w3.org/2000/svg" viewBox="0 0 640 480" role="img" aria-label="Shop Counter">
  <defs>
    <linearGradient id="g1" x1="0" x2="0" y1="0" y2="1">
      <stop offset="0" stop-color="#e8eef6"/>
      <stop offset="1" stop-color="#ffffff"/>
    </linearGradient>
  </defs>
  <!-- Background panel -->
  <rect x="0" y="0" width="640" height="480" fill="url(#g1)"/>
  <!-- Counter base -->
  <rect x="80" y="280" width="480" height="120" rx="12" fill="#1a5da8" opacity="0.08"/>
  <rect x="100" y="300" width="440" height="100" rx="8" fill="#1a5da8" opacity="0.12"/>
  <rect x="120" y="320" width="400" height="80" rx="6" fill="#1a5da8" opacity="0.18"/>
  <!-- Desk front -->
  <rect x="120" y="320" width="400" height="80" rx="6" fill="#0f3d73"/>
  <rect x="140" y="340" width="360" height="12" rx="6" fill="#1a5da8" opacity="0.6"/>
  <rect x="140" y="360" width="220" height="24" rx="4" fill="#e6eef8"/>
  <!-- Cash register -->
  <rect x="420" y="248" width="76" height="44" rx="6" fill="#1a5da8"/>
  <rect x="428" y="256" width="60" height="12" rx="3" fill="#e6eef8"/>
  <rect x="428" y="274" width="36" height="10" rx="2" fill="#e6eef8"/>
  <!-- Top shelf / products silhouettes -->
  <rect x="120" y="260" width="260" height="8" rx="4" fill="#c7d6ea"/>
  <rect x="140" y="228" width="36" height="28" rx="4" fill="#aac1dd"/>
  <rect x="184" y="220" width="40" height="36" rx="6" fill="#b7c9e3"/>
  <rect x="232" y="232" width="28" height="24" rx="4" fill="#aac1dd"/>
  <rect x="268" y="224" width="44" height="32" rx="6" fill="#b7c9e3"/>
  <!-- Awning -->
  <rect x="100" y="180" width="420" height="10" fill="#1a5da8" opacity="0.35"/>
  <g transform="translate(100,170)">
    <path d="M0 10 h420 v10 H0z" fill="#1a5da8" opacity="0.15"/>
    <g fill="#1a5da8">
      <rect x="0" y="0" width="40" height="20" rx="4"/>
      <rect x="42" y="0" width="40" height="20" rx="4" opacity="0.7"/>
      <rect x="84" y="0" width="40" height="20" rx="4"/>
      <rect x="126" y="0" width="40" height="20" rx="4" opacity="0.7"/>
      <rect x="168" y="0" width="40" height="20" rx="4"/>
      <rect x="210" y="0" width="40" height="20" rx="4" opacity="0.7"/>
      <rect x="252" y="0" width="40" height="20" rx="4"/>
      <rect x="294" y="0" width="40" height="20" rx="4" opacity="0.7"/>
      <rect x="336" y="0" width="40" height="20" rx="4"/>
      <rect x="378" y="0" width="40" height="20" rx="4" opacity="0.7"/>
    </g>
  </g>
</svg>
